<?xml version="1.0" encoding="utf-8"?>
<!-- Svg Vector Icons : http://www.onlinewebfonts.com/icon -->
<!DOCTYPE svg PUBLIC "-//W3C//DTD SVG 1.1//EN" "http://www.w3.org/Graphics/SVG/1.1/DTD/svg11.dtd">
<svg version="1.1" xmlns="http://www.w3.org/2000/svg" xmlns:xlink="http://www.w3.org/1999/xlink" x="0px" y="0px" viewBox="0 0 1000 1000" enable-background="new 0 0 1000 1000" xml:space="preserve">
<metadata> Svg Vector Icons : http://www.onlinewebfonts.com/icon </metadata>
<g><g><path d="M500,506c-68.5,0-127.1-24.2-175.5-72.7c-48.5-48.5-72.7-106.8-72.7-175c0-68.5,24.2-127.1,72.7-175.5C372.9,34.2,431.5,10,500,10s127.1,24.2,175.5,72.7c48.5,48.5,72.7,107,72.7,175.5c0,68.2-24.2,126.5-72.7,175C627.1,481.8,568.5,506,500,506z M500,135.8c-33.5,0-62.3,11.9-86.1,35.8C390,195.5,378,224.4,378,258.3c0,33.5,11.9,62.3,35.8,86.1s52.6,35.8,86.1,35.8s62.3-11.9,86.1-35.8s35.8-52.6,35.8-86.1c0-33.9-11.9-62.8-35.8-86.7C562.3,147.7,533.5,135.8,500,135.8z M786,536.1c4.7,9.8,7.5,18.9,8.2,27.1c0.7,8.2-0.1,15.6-2.5,22.1c-2.4,6.6-7.2,13.6-14.5,21.1c-7.3,7.5-15,14.2-23.2,20.2c-8.2,6-19.4,13.6-33.6,22.7c-41.9,26.6-99.3,43.8-172.3,51.4l39.9,39.4l146,146c10.9,11.3,16.4,24.8,16.4,40.5s-5.5,29-16.4,39.9l-6.6,7.1C716.2,984.5,702.7,990,687,990c-15.7,0-29.2-5.5-40.5-16.4c-24.4-24.8-73.1-73.6-146-146.6l-146,146.6c-11.3,10.9-24.8,16.4-40.5,16.4s-29-5.5-39.9-16.4l-6.6-7.1c-11.3-10.9-17-24.2-17-39.9s5.7-29.2,17-40.5L453,700.7c-74-7.7-131.8-24.8-173.4-51.4c-14.2-9.1-25.4-16.7-33.6-22.7c-8.2-6-16-12.8-23.2-20.2c-7.3-7.5-12.1-14.5-14.5-21.1c-2.4-6.6-3.2-13.9-2.5-22.1c0.7-8.2,3.5-17.2,8.2-27.1c3.6-7.3,8.8-13.7,15.3-19.1c6.6-5.5,14.2-9.5,23-12c8.8-2.6,19-2.2,30.6,1.1c11.7,3.3,23.5,9.7,35.5,19.1c1.8,1.5,4.6,3.5,8.2,6c3.6,2.6,11.5,7,23.5,13.4c12,6.4,24.6,11.9,37.7,16.7s29.9,9.1,50.3,13.1c20.4,4,41,6,61.8,6c33.2,0,64.9-4.6,95.2-13.9c30.3-9.3,52.1-18.5,65.6-27.6l20.8-13.7c12-9.5,23.9-15.9,35.5-19.1c11.7-3.3,21.9-3.6,30.6-1.1s16.4,6.6,23,12S782.4,528.8,786,536.1L786,536.1z"/></g></g>
</svg>